<svg width="16" height="17" viewBox="0 0 16 17" fill="none" xmlns="http://www.w3.org/2000/svg">
<mask id="mask0_103_92" style="mask-type:alpha" maskUnits="userSpaceOnUse" x="0" y="0" width="16" height="17">
<rect y="0.5" width="16" height="16" fill="#D9D9D9"/>
</mask>
<g mask="url(#mask0_103_92)">
<path d="M7.20506 11.5256H4.69226C3.85517 11.5256 3.14163 11.2306 2.55163 10.6407C1.96163 10.0508 1.66663 9.33734 1.66663 8.50035C1.66663 7.66336 1.96163 6.94978 2.55163 6.35962C3.14163 5.76945 3.85517 5.47437 4.69226 5.47437H7.20506V6.47433H4.69226C4.13243 6.47433 3.65486 6.67198 3.25956 7.06728C2.86426 7.46258 2.66661 7.94015 2.66661 8.49998C2.66661 9.05982 2.86426 9.53738 3.25956 9.93268C3.65486 10.328 4.13243 10.5256 4.69226 10.5256H7.20506V11.5256ZM5.49996 8.99997V8H10.4999V8.99997H5.49996ZM8.79483 11.5256V10.5256H11.3076C11.8675 10.5256 12.345 10.328 12.7403 9.93268C13.1356 9.53738 13.3333 9.05982 13.3333 8.49998C13.3333 7.94015 13.1356 7.46258 12.7403 7.06728C12.345 6.67198 11.8675 6.47433 11.3076 6.47433H8.79483V5.47437H11.3076C12.1447 5.47437 12.8583 5.76933 13.4483 6.35925C14.0383 6.94917 14.3333 7.66263 14.3333 8.49962C14.3333 9.3366 14.0383 10.0502 13.4483 10.6403C12.8583 11.2305 12.1447 11.5256 11.3076 11.5256H8.79483Z" fill="#1D1D1D"/>
</g>
</svg>
