<svg width="16" height="16" viewBox="0 0 16 16" fill="none" xmlns="http://www.w3.org/2000/svg">
<g clip-path="url(#clip0_187_4071)">
<path fill-rule="evenodd" clip-rule="evenodd" d="M7.99999 14.1333C11.3873 14.1333 14.1333 11.3873 14.1333 7.99996C14.1333 4.61261 11.3873 1.86663 7.99999 1.86663C4.61264 1.86663 1.86666 4.61261 1.86666 7.99996C1.86666 11.3873 4.61264 14.1333 7.99999 14.1333ZM7.99999 15.3333C12.0501 15.3333 15.3333 12.05 15.3333 7.99996C15.3333 3.94987 12.0501 0.666626 7.99999 0.666626C3.9499 0.666626 0.666656 3.94987 0.666656 7.99996C0.666656 12.05 3.9499 15.3333 7.99999 15.3333Z" fill="#1D1D1D"/>
<path fill-rule="evenodd" clip-rule="evenodd" d="M7.39961 12.6L7.39961 6.06664L8.59961 6.06664L8.59961 12.6L7.39961 12.6Z" fill="#1D1D1D"/>
<path fill-rule="evenodd" clip-rule="evenodd" d="M7.39961 5.26672L7.39961 3.40006L8.59961 3.40006L8.59961 5.26672L7.39961 5.26672Z" fill="#1D1D1D"/>
</g>
<defs>
<clipPath id="clip0_187_4071">
<rect width="16" height="16" fill="white"/>
</clipPath>
</defs>
</svg>
