<svg width="84" height="34" viewBox="0 0 84 34" fill="none" xmlns="http://www.w3.org/2000/svg">
<path d="M8.16922 6.772C8.16922 7.836 8.05255 8.73667 7.81922 9.474C7.59522 10.2113 7.29655 10.804 6.92322 11.252C6.55922 11.7093 6.13455 12.0407 5.64922 12.246C5.17322 12.4513 4.68322 12.554 4.17922 12.554C3.66589 12.554 3.16655 12.4513 2.68122 12.246C2.20522 12.0407 1.78055 11.7093 1.40722 11.252C1.04322 10.804 0.749219 10.2113 0.525219 9.474C0.301219 8.73667 0.189219 7.836 0.189219 6.772C0.189219 5.708 0.301219 4.812 0.525219 4.084C0.749219 3.34667 1.04322 2.74933 1.40722 2.292C1.78055 1.83467 2.20522 1.50333 2.68122 1.298C3.16655 1.09267 3.66589 0.99 4.17922 0.99C4.68322 0.99 5.17322 1.09267 5.64922 1.298C6.13455 1.50333 6.55922 1.83467 6.92322 2.292C7.29655 2.74933 7.59522 3.34667 7.81922 4.084C8.05255 4.812 8.16922 5.708 8.16922 6.772ZM2.37322 6.772C2.37322 7.56533 2.41989 8.22333 2.51322 8.746C2.61589 9.26867 2.74655 9.68867 2.90522 10.006C3.07322 10.314 3.26455 10.5333 3.47922 10.664C3.70322 10.7853 3.93655 10.846 4.17922 10.846C4.41255 10.846 4.63655 10.7853 4.85122 10.664C5.07522 10.5333 5.26655 10.314 5.42522 10.006C5.59322 9.698 5.72389 9.28267 5.81722 8.76C5.91989 8.228 5.97122 7.56067 5.97122 6.758C5.97122 5.96467 5.91989 5.30667 5.81722 4.784C5.72389 4.26133 5.59322 3.846 5.42522 3.538C5.26655 3.23 5.07522 3.01533 4.85122 2.894C4.63655 2.76333 4.41255 2.698 4.17922 2.698C3.93655 2.698 3.70322 2.76333 3.47922 2.894C3.26455 3.01533 3.07322 3.23467 2.90522 3.552C2.74655 3.86 2.61589 4.27533 2.51322 4.798C2.41989 5.32067 2.37322 5.97867 2.37322 6.772ZM11.8372 12.554H9.63922V0.85H11.8372V12.554ZM20.1032 1.13V2.838H17.9052V6.086C17.9052 6.46867 17.8866 6.83267 17.8492 7.178C17.8212 7.514 17.7746 7.84533 17.7092 8.172L20.5372 10.832L19.3192 12.316L17.0092 10.048C16.7106 10.552 16.3232 10.9953 15.8472 11.378C15.3806 11.7607 14.8112 12.078 14.1392 12.33L13.1732 10.706C13.6306 10.51 14.0179 10.2907 14.3352 10.048C14.6526 9.80533 14.9139 9.50667 15.1192 9.152C15.3246 8.788 15.4739 8.35867 15.5672 7.864C15.6606 7.36933 15.7072 6.772 15.7072 6.072V2.838H13.5932V1.13H20.1032ZM21.1112 12.554V6.506L19.1372 7.192V5.442L21.1112 4.756V0.85H23.1272V12.554H21.1112ZM26.1792 12.554H24.1492V0.85H26.1792V12.554ZM30.754 3.678H38.594V5.386H28.556V0.99H30.754V3.678ZM27.73 6.464H39.42V8.172H27.73V6.464ZM30.614 9.124V11.126H38.874V12.834H28.416V9.124H30.614ZM49.3833 1.83H52.4493V3.538H49.3833V3.944C49.3833 4.18667 49.3646 4.42 49.3273 4.644C49.2993 4.85867 49.2573 5.07333 49.2013 5.288L52.6593 7.402L51.6093 8.886L48.3893 6.926C47.9973 7.402 47.5026 7.81267 46.9053 8.158C46.3173 8.494 45.6173 8.75533 44.8053 8.942L44.0073 7.402C44.5206 7.29 44.9733 7.14067 45.3653 6.954C45.7573 6.76733 46.0886 6.534 46.3593 6.254C46.6299 5.974 46.8353 5.64267 46.9753 5.26C47.1153 4.87733 47.1853 4.434 47.1853 3.93V3.538H44.2593V1.83H47.1853V0.388H49.3833V1.83ZM55.6693 12.554H53.4713V0.85H55.6693V12.554ZM47.1853 10.566V8.55H49.3833V10.566H52.6453V12.26H43.9093V10.566H47.1853ZM64.2993 6.772C64.2993 7.87333 64.2013 8.79267 64.0053 9.53C63.8186 10.2673 63.5619 10.86 63.2353 11.308C62.9179 11.756 62.5446 12.0733 62.1153 12.26C61.6859 12.456 61.2286 12.554 60.7433 12.554C60.2579 12.554 59.8006 12.456 59.3713 12.26C58.9419 12.0733 58.5639 11.756 58.2373 11.308C57.9199 10.86 57.6633 10.2673 57.4673 9.53C57.2806 8.79267 57.1873 7.87333 57.1873 6.772C57.1873 5.68 57.2806 4.76533 57.4673 4.028C57.6633 3.28133 57.9199 2.684 58.2373 2.236C58.5639 1.788 58.9419 1.47067 59.3713 1.284C59.8006 1.088 60.2579 0.99 60.7433 0.99C61.2286 0.99 61.6859 1.088 62.1153 1.284C62.5446 1.47067 62.9179 1.788 63.2353 2.236C63.5619 2.684 63.8186 3.28133 64.0053 4.028C64.2013 4.76533 64.2993 5.68 64.2993 6.772ZM65.2233 12.554V0.85H67.2393V5.834L68.5413 5.372V0.85H70.5713V12.554H68.5413V7.262L67.2393 7.724V12.554H65.2233ZM59.1893 6.772C59.1893 7.60267 59.2359 8.284 59.3293 8.816C59.4226 9.33867 59.5393 9.754 59.6793 10.062C59.8286 10.3607 59.9966 10.566 60.1833 10.678C60.3699 10.79 60.5566 10.846 60.7433 10.846C60.9299 10.846 61.1119 10.79 61.2893 10.678C61.4759 10.566 61.6439 10.3607 61.7933 10.062C61.9426 9.754 62.0593 9.33867 62.1433 8.816C62.2366 8.284 62.2833 7.598 62.2833 6.758C62.2833 5.93667 62.2366 5.26467 62.1433 4.742C62.0593 4.21 61.9426 3.79467 61.7933 3.496C61.6439 3.188 61.4759 2.978 61.2893 2.866C61.1119 2.754 60.9299 2.698 60.7433 2.698C60.5566 2.698 60.3699 2.754 60.1833 2.866C59.9966 2.978 59.8286 3.188 59.6793 3.496C59.5393 3.79467 59.4226 4.21 59.3293 4.742C59.2359 5.26467 59.1893 5.94133 59.1893 6.772ZM71.562 6.142H83.252V7.71H71.562V6.142ZM80.368 9.908V9.474H72.248V8.228H82.566V11.154H74.446V11.588H82.706V12.834H72.248V9.908H80.368ZM80.228 2.67V2.222H72.388V0.976H82.426V3.916H74.586V4.35H82.566V5.596H72.388V2.67H80.228ZM23.3046 21.13V22.838H20.4486V26.086C20.4486 26.786 20.3786 27.444 20.2386 28.06L23.6686 30.692L22.5906 32.316L19.4966 29.908C19.142 30.4493 18.6893 30.9207 18.1386 31.322C17.588 31.7233 16.902 32.0593 16.0806 32.33L15.1146 30.706C15.6746 30.51 16.1506 30.2907 16.5426 30.048C16.944 29.8053 17.2706 29.5067 17.5226 29.152C17.7746 28.788 17.9566 28.3587 18.0686 27.864C18.19 27.3693 18.2506 26.772 18.2506 26.072V22.838H15.5346V21.13H23.3046ZM26.5246 25.232H27.7426V26.94H26.5246V32.554H24.3266V20.85H26.5246V25.232ZM34.5947 33.114C33.7547 33.114 32.9987 33.0627 32.3267 32.96C31.664 32.8573 31.0993 32.6987 30.6327 32.484C30.1753 32.2693 29.8253 32.0033 29.5827 31.686C29.34 31.3687 29.2187 30.9907 29.2187 30.552C29.2187 30.1227 29.34 29.7493 29.5827 29.432C29.8253 29.1053 30.1753 28.8393 30.6327 28.634C31.0993 28.4193 31.664 28.2607 32.3267 28.158C32.9987 28.0553 33.7547 28.004 34.5947 28.004C35.4347 28.004 36.186 28.0553 36.8487 28.158C37.5207 28.2607 38.0853 28.4193 38.5427 28.634C39.0093 28.8393 39.364 29.1053 39.6067 29.432C39.8493 29.7493 39.9707 30.1227 39.9707 30.552C39.9707 30.9907 39.8493 31.3687 39.6067 31.686C39.364 32.0033 39.0093 32.2693 38.5427 32.484C38.0853 32.6987 37.5207 32.8573 36.8487 32.96C36.186 33.0627 35.4347 33.114 34.5947 33.114ZM28.8827 22.698V20.99H35.7287V25.078H31.0807V25.736H36.0087V27.444H28.8827V23.37H33.5307V22.698H28.8827ZM39.6907 24.756V27.654H37.4927V20.85H39.6907V23.048H40.9087V24.756H39.6907ZM34.5947 31.406C35.5933 31.406 36.3727 31.3407 36.9327 31.21C37.4927 31.0793 37.7727 30.86 37.7727 30.552C37.7727 30.244 37.4927 30.0247 36.9327 29.894C36.3727 29.7633 35.5933 29.698 34.5947 29.698C33.596 29.698 32.8167 29.7633 32.2567 29.894C31.6967 30.0247 31.4167 30.244 31.4167 30.552C31.4167 30.86 31.6967 31.0793 32.2567 31.21C32.8167 31.3407 33.596 31.406 34.5947 31.406ZM50.6587 29.614V28.97H42.6367V27.682H52.8567V30.902H44.8347V31.546H52.9967V32.834H42.6367V29.614H50.6587ZM45.5347 23.468C46.748 23.468 47.6533 23.6267 48.2507 23.944C48.8573 24.252 49.1607 24.7 49.1607 25.288C49.1607 26.492 47.952 27.094 45.5347 27.094C43.136 27.094 41.9367 26.492 41.9367 25.288C41.9367 24.7 42.2353 24.252 42.8327 23.944C43.4393 23.6267 44.34 23.468 45.5347 23.468ZM46.6407 21.27H49.4967V22.978H41.5867V21.27H44.4427V20.248H46.6407V21.27ZM52.8567 24.896V27.052H50.6587V20.85H52.8567V23.188H54.0747V24.896H52.8567ZM45.5347 24.812C45.1427 24.812 44.8113 24.8447 44.5407 24.91C44.27 24.966 44.1347 25.092 44.1347 25.288C44.1347 25.4747 44.27 25.6007 44.5407 25.666C44.8113 25.7313 45.1427 25.764 45.5347 25.764C45.7213 25.764 45.8987 25.7593 46.0667 25.75C46.244 25.7313 46.398 25.7033 46.5287 25.666C46.6593 25.6287 46.762 25.582 46.8367 25.526C46.9207 25.4607 46.9627 25.3813 46.9627 25.288C46.9627 25.1947 46.9207 25.1153 46.8367 25.05C46.762 24.9847 46.6547 24.938 46.5147 24.91C46.384 24.8727 46.23 24.8493 46.0527 24.84C45.8847 24.8213 45.712 24.812 45.5347 24.812ZM63.45 26.086C63.45 26.7953 63.3753 27.444 63.226 28.032L66.81 30.692L65.732 32.316L62.456 29.852C62.1013 30.412 61.6346 30.8973 61.056 31.308C60.4773 31.7187 59.7726 32.0593 58.942 32.33L57.976 30.706C58.536 30.51 59.0213 30.2907 59.432 30.048C59.8426 29.8053 60.1833 29.5067 60.454 29.152C60.7246 28.788 60.9253 28.3587 61.056 27.864C61.1866 27.3693 61.252 26.772 61.252 26.072V20.962H63.45V26.086ZM69.806 32.554H67.608V20.85H69.806V32.554ZM71.744 22.698V20.99H78.59V27.864H76.392V22.698H71.744ZM74.53 28.844V31.14H82.692V32.834H72.332V28.844H74.53ZM82.552 24.896V29.208H80.354V20.85H82.552V23.188H83.77V24.896H82.552Z" fill="#1D1D1D"/>
</svg>
