<svg width="360" height="20" viewBox="0 0 360 20" fill="none" xmlns="http://www.w3.org/2000/svg">
<g clip-path="url(#clip0_415_1697)">
<g filter="url(#filter0_d_415_1697)">
<mask id="path-1-inside-1_415_1697" fill="#f9f9f9">
<path fill-rule="evenodd" clip-rule="evenodd" d="M0 0H360V19.7456L356.5 19.7455C356.5 15.3834 352.918 11.8472 348.5 11.8472C344.082 11.8472 340.5 15.3834 340.5 19.7455H334C334 15.3834 330.418 11.8472 326 11.8472C321.582 11.8472 318 15.3834 318 19.7455H311.5C311.5 15.3834 307.918 11.8472 303.5 11.8472C299.082 11.8472 295.5 15.3834 295.5 19.7455H289C289 15.3834 285.418 11.8472 281 11.8472C276.582 11.8472 273 15.3834 273 19.7455H266.5C266.5 15.3834 262.918 11.8472 258.5 11.8472C254.082 11.8472 250.5 15.3834 250.5 19.7455H244C244 15.3834 240.418 11.8472 236 11.8472C231.582 11.8472 228 15.3834 228 19.7455H221.5C221.5 15.3834 217.918 11.8472 213.5 11.8472C209.082 11.8472 205.5 15.3834 205.5 19.7455H199C199 15.3834 195.418 11.8472 191 11.8472C186.582 11.8472 183 15.3834 183 19.7455H176.5C176.5 15.3834 172.918 11.8472 168.5 11.8472C164.082 11.8472 160.5 15.3834 160.5 19.7455L154 19.7456C154 15.3834 150.418 11.8472 146 11.8472C141.582 11.8472 138 15.3834 138 19.7455V19.7456H131.5V19.7455C131.5 15.3834 127.918 11.8472 123.5 11.8472C119.082 11.8472 115.5 15.3834 115.5 19.7455V19.7456H109V19.7455C109 15.3834 105.418 11.8472 101 11.8472C96.5817 11.8472 93 15.3834 93 19.7455V19.7456H86.5V19.7455C86.5 15.3834 82.9183 11.8472 78.5 11.8472C74.0817 11.8472 70.5 15.3834 70.5 19.7455V19.7456H64V19.7455C64 15.3834 60.4183 11.8472 56 11.8472C51.5817 11.8472 48 15.3834 48 19.7455V19.7456H41.5V19.7455C41.5 15.3834 37.9183 11.8472 33.5 11.8472C29.0817 11.8472 25.5 15.3834 25.5 19.7455V19.7456H19V19.7455C19 15.3834 15.4183 11.8472 11 11.8472C6.58172 11.8472 3 15.3834 3 19.7455V19.7456H0V0Z"/>
</mask>
<path fill-rule="evenodd" clip-rule="evenodd" d="M0 0H360V19.7456L356.5 19.7455C356.5 15.3834 352.918 11.8472 348.5 11.8472C344.082 11.8472 340.5 15.3834 340.5 19.7455H334C334 15.3834 330.418 11.8472 326 11.8472C321.582 11.8472 318 15.3834 318 19.7455H311.5C311.5 15.3834 307.918 11.8472 303.5 11.8472C299.082 11.8472 295.5 15.3834 295.5 19.7455H289C289 15.3834 285.418 11.8472 281 11.8472C276.582 11.8472 273 15.3834 273 19.7455H266.5C266.5 15.3834 262.918 11.8472 258.5 11.8472C254.082 11.8472 250.5 15.3834 250.5 19.7455H244C244 15.3834 240.418 11.8472 236 11.8472C231.582 11.8472 228 15.3834 228 19.7455H221.5C221.5 15.3834 217.918 11.8472 213.5 11.8472C209.082 11.8472 205.5 15.3834 205.5 19.7455H199C199 15.3834 195.418 11.8472 191 11.8472C186.582 11.8472 183 15.3834 183 19.7455H176.5C176.5 15.3834 172.918 11.8472 168.5 11.8472C164.082 11.8472 160.5 15.3834 160.5 19.7455L154 19.7456C154 15.3834 150.418 11.8472 146 11.8472C141.582 11.8472 138 15.3834 138 19.7455V19.7456H131.5V19.7455C131.5 15.3834 127.918 11.8472 123.5 11.8472C119.082 11.8472 115.5 15.3834 115.5 19.7455V19.7456H109V19.7455C109 15.3834 105.418 11.8472 101 11.8472C96.5817 11.8472 93 15.3834 93 19.7455V19.7456H86.5V19.7455C86.5 15.3834 82.9183 11.8472 78.5 11.8472C74.0817 11.8472 70.5 15.3834 70.5 19.7455V19.7456H64V19.7455C64 15.3834 60.4183 11.8472 56 11.8472C51.5817 11.8472 48 15.3834 48 19.7455V19.7456H41.5V19.7455C41.5 15.3834 37.9183 11.8472 33.5 11.8472C29.0817 11.8472 25.5 15.3834 25.5 19.7455V19.7456H19V19.7455C19 15.3834 15.4183 11.8472 11 11.8472C6.58172 11.8472 3 15.3834 3 19.7455V19.7456H0V0Z" fill="#f9f9f9"/>
<path d="M360 0H362V-2H360V0ZM0 0V-2H-2V0H0ZM360 19.7456L360 21.7456L362 21.7457V19.7456H360ZM356.5 19.7455H354.5V21.7454L356.5 21.7455L356.5 19.7455ZM340.5 19.7455V21.7455H342.5V19.7455H340.5ZM334 19.7455H332V21.7455H334V19.7455ZM318 19.7455V21.7455H320V19.7455H318ZM311.5 19.7455H309.5V21.7455H311.5V19.7455ZM295.5 19.7455V21.7455H297.5V19.7455H295.5ZM289 19.7455H287V21.7455H289V19.7455ZM273 19.7455V21.7455H275V19.7455H273ZM266.5 19.7455H264.5V21.7455H266.5V19.7455ZM250.5 19.7455V21.7455H252.5V19.7455H250.5ZM244 19.7455H242V21.7455H244V19.7455ZM228 19.7455V21.7455H230V19.7455H228ZM221.5 19.7455H219.5V21.7455H221.5V19.7455ZM205.5 19.7455V21.7455H207.5V19.7455H205.5ZM199 19.7455H197V21.7455H199V19.7455ZM183 19.7455V21.7455H185V19.7455H183ZM176.5 19.7455H174.5V21.7455H176.5V19.7455ZM160.5 19.7455L160.5 21.7455L162.5 21.7454V19.7455H160.5ZM154 19.7456H152V21.7456L154 21.7456L154 19.7456ZM138 19.7456V21.7456H140V19.7456H138ZM131.5 19.7456H129.5V21.7456H131.5V19.7456ZM115.5 19.7456V21.7456H117.5V19.7456H115.5ZM109 19.7456H107V21.7456H109V19.7456ZM93 19.7456V21.7456H95V19.7456H93ZM86.5 19.7456H84.5V21.7456H86.5V19.7456ZM70.5 19.7456V21.7456H72.5V19.7456H70.5ZM64 19.7456H62V21.7456H64V19.7456ZM48 19.7456V21.7456H50V19.7456H48ZM41.5 19.7456H39.5V21.7456H41.5V19.7456ZM25.5 19.7456V21.7456H27.5V19.7456H25.5ZM19 19.7456H17V21.7456H19V19.7456ZM3 19.7456V21.7456H5V19.7456H3ZM0 19.7456H-2V21.7456H0V19.7456ZM360 -2H0V2H360V-2ZM362 19.7456V0H358V19.7456H362ZM356.5 21.7455L360 21.7456L360 17.7456L356.5 17.7455L356.5 21.7455ZM348.5 13.8472C351.838 13.8472 354.5 16.512 354.5 19.7455H358.5C358.5 14.2548 353.999 9.84724 348.5 9.84724V13.8472ZM342.5 19.7455C342.5 16.512 345.162 13.8472 348.5 13.8472V9.84724C343.001 9.84724 338.5 14.2548 338.5 19.7455H342.5ZM334 21.7455H340.5V17.7455H334V21.7455ZM326 13.8472C329.338 13.8472 332 16.512 332 19.7455H336C336 14.2548 331.499 9.84724 326 9.84724V13.8472ZM320 19.7455C320 16.512 322.662 13.8472 326 13.8472V9.84724C320.501 9.84724 316 14.2548 316 19.7455H320ZM311.5 21.7455H318V17.7455H311.5V21.7455ZM303.5 13.8472C306.838 13.8472 309.5 16.512 309.5 19.7455H313.5C313.5 14.2548 308.999 9.84724 303.5 9.84724V13.8472ZM297.5 19.7455C297.5 16.512 300.162 13.8472 303.5 13.8472V9.84724C298.001 9.84724 293.5 14.2548 293.5 19.7455H297.5ZM289 21.7455H295.5V17.7455H289V21.7455ZM281 13.8472C284.338 13.8472 287 16.512 287 19.7455H291C291 14.2548 286.499 9.84724 281 9.84724V13.8472ZM275 19.7455C275 16.512 277.662 13.8472 281 13.8472V9.84724C275.501 9.84724 271 14.2548 271 19.7455H275ZM266.5 21.7455H273V17.7455H266.5V21.7455ZM258.5 13.8472C261.838 13.8472 264.5 16.512 264.5 19.7455H268.5C268.5 14.2548 263.999 9.84724 258.5 9.84724V13.8472ZM252.5 19.7455C252.5 16.512 255.162 13.8472 258.5 13.8472V9.84724C253.001 9.84724 248.5 14.2548 248.5 19.7455H252.5ZM244 21.7455H250.5V17.7455H244V21.7455ZM236 13.8472C239.338 13.8472 242 16.512 242 19.7455H246C246 14.2548 241.499 9.84724 236 9.84724V13.8472ZM230 19.7455C230 16.512 232.662 13.8472 236 13.8472V9.84724C230.501 9.84724 226 14.2548 226 19.7455H230ZM221.5 21.7455H228V17.7455H221.5V21.7455ZM213.5 13.8472C216.838 13.8472 219.5 16.512 219.5 19.7455H223.5C223.5 14.2548 218.999 9.84724 213.5 9.84724V13.8472ZM207.5 19.7455C207.5 16.512 210.162 13.8472 213.5 13.8472V9.84724C208.001 9.84724 203.5 14.2548 203.5 19.7455H207.5ZM199 21.7455H205.5V17.7455H199V21.7455ZM191 13.8472C194.338 13.8472 197 16.512 197 19.7455H201C201 14.2548 196.499 9.84724 191 9.84724V13.8472ZM185 19.7455C185 16.512 187.662 13.8472 191 13.8472V9.84724C185.501 9.84724 181 14.2548 181 19.7455H185ZM176.5 21.7455H183V17.7455H176.5V21.7455ZM168.5 13.8472C171.838 13.8472 174.5 16.512 174.5 19.7455H178.5C178.5 14.2548 173.999 9.84724 168.5 9.84724V13.8472ZM162.5 19.7455C162.5 16.512 165.162 13.8472 168.5 13.8472V9.84724C163.001 9.84724 158.5 14.2548 158.5 19.7455H162.5ZM154 21.7456L160.5 21.7455L160.5 17.7455L154 17.7456L154 21.7456ZM146 13.8472C149.338 13.8472 152 16.512 152 19.7456H156C156 14.2548 151.499 9.84724 146 9.84724V13.8472ZM140 19.7455C140 16.512 142.662 13.8472 146 13.8472V9.84724C140.501 9.84724 136 14.2548 136 19.7455H140ZM140 19.7456V19.7455H136V19.7456H140ZM131.5 21.7456H138V17.7456H131.5V21.7456ZM129.5 19.7455V19.7456H133.5V19.7455H129.5ZM123.5 13.8472C126.838 13.8472 129.5 16.512 129.5 19.7455H133.5C133.5 14.2548 128.999 9.84724 123.5 9.84724V13.8472ZM117.5 19.7455C117.5 16.512 120.162 13.8472 123.5 13.8472V9.84724C118.001 9.84724 113.5 14.2548 113.5 19.7455H117.5ZM117.5 19.7456V19.7455H113.5V19.7456H117.5ZM109 21.7456H115.5V17.7456H109V21.7456ZM107 19.7455V19.7456H111V19.7455H107ZM101 13.8472C104.338 13.8472 107 16.512 107 19.7455H111C111 14.2548 106.499 9.84724 101 9.84724V13.8472ZM95 19.7455C95 16.512 97.6621 13.8472 101 13.8472V9.84724C95.5014 9.84724 91 14.2548 91 19.7455H95ZM95 19.7456V19.7455H91V19.7456H95ZM86.5 21.7456H93V17.7456H86.5V21.7456ZM84.5 19.7455V19.7456H88.5V19.7455H84.5ZM78.5 13.8472C81.8379 13.8472 84.5 16.512 84.5 19.7455H88.5C88.5 14.2548 83.9986 9.84724 78.5 9.84724V13.8472ZM72.5 19.7455C72.5 16.512 75.1621 13.8472 78.5 13.8472V9.84724C73.0014 9.84724 68.5 14.2548 68.5 19.7455H72.5ZM72.5 19.7456V19.7455H68.5V19.7456H72.5ZM64 21.7456H70.5V17.7456H64V21.7456ZM62 19.7455V19.7456H66V19.7455H62ZM56 13.8472C59.3379 13.8472 62 16.512 62 19.7455H66C66 14.2548 61.4986 9.84724 56 9.84724V13.8472ZM50 19.7455C50 16.512 52.6621 13.8472 56 13.8472V9.84724C50.5014 9.84724 46 14.2548 46 19.7455H50ZM50 19.7456V19.7455H46V19.7456H50ZM41.5 21.7456H48V17.7456H41.5V21.7456ZM39.5 19.7455V19.7456H43.5V19.7455H39.5ZM33.5 13.8472C36.8379 13.8472 39.5 16.512 39.5 19.7455H43.5C43.5 14.2548 38.9986 9.84724 33.5 9.84724V13.8472ZM27.5 19.7455C27.5 16.512 30.1621 13.8472 33.5 13.8472V9.84724C28.0014 9.84724 23.5 14.2548 23.5 19.7455H27.5ZM27.5 19.7456V19.7455H23.5V19.7456H27.5ZM19 21.7456H25.5V17.7456H19V21.7456ZM17 19.7455V19.7456H21V19.7455H17ZM11 13.8472C14.3379 13.8472 17 16.512 17 19.7455H21C21 14.2548 16.4986 9.84724 11 9.84724V13.8472ZM5 19.7455C5 16.512 7.66208 13.8472 11 13.8472V9.84724C5.50137 9.84724 1 14.2548 1 19.7455H5ZM5 19.7456V19.7455H1V19.7456H5ZM0 21.7456H3V17.7456H0V21.7456ZM-2 0V19.7456H2V0H-2Z" fill="black" mask="url(#path-1-inside-1_415_1697)"/>
</g>
<rect x="2" y="-1" width="356" height="5" fill="#f9f9f9"/>
</g>
<defs>
<filter id="filter0_d_415_1697" x="-8" y="-4" width="376" height="35.7456" filterUnits="userSpaceOnUse" color-interpolation-filters="sRGB">
<feFlood flood-opacity="0" result="BackgroundImageFix"/>
<feColorMatrix in="SourceAlpha" type="matrix" values="0 0 0 0 0 0 0 0 0 0 0 0 0 0 0 0 0 0 127 0" result="hardAlpha"/>
<feOffset dy="4"/>
<feGaussianBlur stdDeviation="4"/>
<feComposite in2="hardAlpha" operator="out"/>
<feColorMatrix type="matrix" values="0 0 0 0 0 0 0 0 0 0 0 0 0 0 0 0 0 0 0.12 0"/>
<feBlend mode="normal" in2="BackgroundImageFix" result="effect1_dropShadow_415_1697"/>
<feBlend mode="normal" in="SourceGraphic" in2="effect1_dropShadow_415_1697" result="shape"/>
</filter>
<clipPath id="clip0_415_1697">
<rect width="360" height="20" fill="#f9f9f9"/>
</clipPath>
</defs>
</svg>