<svg width="121" height="86" viewBox="0 0 121 86" fill="none" xmlns="http://www.w3.org/2000/svg">
<path d="M32.1465 37.033H34.6889V39.2871H32.1334C32.1247 39.5928 32.0854 39.8899 32.0155 40.1782L34.9248 41.9998L33.5881 43.8739L30.9278 42.1571C30.5346 42.5677 30.0541 42.9172 29.4862 43.2055C28.9183 43.4851 28.2761 43.7079 27.5597 43.8739L26.5244 41.895C27.3544 41.7465 28.0271 41.4538 28.5426 41.0169C29.0581 40.5714 29.3508 39.9947 29.4207 39.2871H26.8914V37.033H29.4338V35.7487H32.1465V37.033ZM38.0963 47.2026H35.3835V36.1156H38.0963V47.2026ZM29.3682 44.6864V43.389H32.081V44.6864H34.8724V46.9274H26.6948V44.6864H29.3682ZM46.4307 41.7246C46.4307 42.7818 46.3345 43.6642 46.1423 44.3719C45.9501 45.0708 45.688 45.63 45.356 46.0493C45.0328 46.4687 44.6571 46.7657 44.229 46.9405C43.8096 47.1152 43.3684 47.2026 42.9054 47.2026C42.4423 47.2026 41.9967 47.1152 41.5686 46.9405C41.1493 46.7657 40.7736 46.4687 40.4416 46.0493C40.1183 45.63 39.8606 45.0708 39.6684 44.3719C39.4762 43.6642 39.3801 42.7818 39.3801 41.7246C39.3801 40.6675 39.4762 39.7894 39.6684 39.0905C39.8606 38.3828 40.1183 37.8193 40.4416 37.3999C40.7736 36.9805 41.1493 36.6835 41.5686 36.5088C41.9967 36.334 42.4423 36.2467 42.9054 36.2467C43.3684 36.2467 43.8096 36.334 44.229 36.5088C44.6571 36.6835 45.0328 36.9805 45.356 37.3999C45.688 37.8193 45.9501 38.3828 46.1423 39.0905C46.3345 39.7894 46.4307 40.6675 46.4307 41.7246ZM46.9024 47.2026V36.1156H49.4448V40.3093L50.1394 40.0734V36.1156H52.6949V47.2026H50.1394V42.5502L49.4448 42.7861V47.2026H46.9024ZM41.9094 41.7246C41.9094 42.3973 41.9399 42.9434 42.0011 43.3628C42.071 43.7821 42.154 44.1098 42.2501 44.3456C42.3462 44.5815 42.4511 44.7432 42.5646 44.8305C42.6869 44.9092 42.8005 44.9485 42.9054 44.9485C43.0102 44.9485 43.1194 44.9092 43.233 44.8305C43.3466 44.7432 43.4514 44.5859 43.5475 44.3588C43.6524 44.1229 43.7354 43.7952 43.7965 43.3759C43.8577 42.9478 43.8883 42.393 43.8883 41.7115C43.8883 41.0388 43.8577 40.4927 43.7965 40.0734C43.7354 39.654 43.6524 39.3307 43.5475 39.1036C43.4514 38.8677 43.3466 38.7104 43.233 38.6318C43.1194 38.5444 43.0102 38.5007 42.9054 38.5007C42.8005 38.5007 42.6869 38.5444 42.5646 38.6318C42.4511 38.7104 42.3462 38.8677 42.2501 39.1036C42.154 39.3395 42.071 39.6671 42.0011 40.0865C41.9399 40.5058 41.9094 41.0519 41.9094 41.7246ZM61.3387 44.6864V46.9274H53.1611V44.6864H61.3387ZM64.5626 47.2026H61.8498V36.1156H64.5626V47.2026ZM57.1582 41.5936C57.4901 41.5936 57.7523 41.4538 57.9445 41.1742C58.1454 40.8859 58.2459 40.4709 58.2459 39.9292C58.2459 39.3701 58.1454 38.9507 57.9445 38.6711C57.7523 38.3915 57.4901 38.2517 57.1582 38.2517C56.433 38.2517 56.0704 38.8109 56.0704 39.9292C56.0704 40.4796 56.1622 40.8946 56.3456 41.1742C56.5378 41.4538 56.8087 41.5936 57.1582 41.5936ZM53.3577 39.9292C53.3577 39.3264 53.4494 38.7847 53.6329 38.3042C53.8163 37.8149 54.0741 37.3999 54.4061 37.0592C54.7381 36.7184 55.1356 36.4563 55.5986 36.2729C56.0704 36.0894 56.5903 35.9977 57.1582 35.9977C57.726 35.9977 58.2415 36.0894 58.7046 36.2729C59.1763 36.4563 59.5782 36.7184 59.9102 37.0592C60.2422 37.3999 60.5 37.8149 60.6834 38.3042C60.8669 38.7847 60.9587 39.3264 60.9587 39.9292C60.9587 40.5233 60.8669 41.0606 60.6834 41.5411C60.5 42.0217 60.2422 42.4323 59.9102 42.773C59.5782 43.1138 59.1763 43.3759 58.7046 43.5593C58.2415 43.7428 57.726 43.8345 57.1582 43.8345C56.5903 43.8345 56.0704 43.7428 55.5986 43.5593C55.1356 43.3759 54.7381 43.1138 54.4061 42.773C54.0741 42.4323 53.8163 42.0217 53.6329 41.5411C53.4494 41.0606 53.3577 40.5233 53.3577 39.9292ZM69.7422 44.9485H71.4327V43.7559C71.1182 43.555 70.8736 43.306 70.6989 43.0089C70.5241 42.7119 70.4368 42.3537 70.4368 41.9343C70.4368 41.4276 70.5634 41.0126 70.8168 40.6893C71.0789 40.3573 71.4327 40.0952 71.8783 39.903C72.3239 39.7108 72.8481 39.5754 73.4509 39.4967C74.0625 39.4181 74.7178 39.3788 75.4167 39.3788C76.1157 39.3788 76.7666 39.4181 77.3694 39.4967C77.9722 39.5754 78.4964 39.7108 78.942 39.903C79.3876 40.0952 79.7371 40.3573 79.9904 40.6893C80.2525 41.0126 80.3836 41.4276 80.3836 41.9343C80.3836 42.3537 80.2962 42.7119 80.1215 43.0089C79.9467 43.306 79.7021 43.555 79.3876 43.7559V44.9485H81.0782V47.2026H69.7422V44.9485ZM70.1222 36.6791H74.0538V35.6438H76.7666V36.6791H80.6981V38.9332H70.1222V36.6791ZM73.1495 41.9343C73.1495 42.109 73.3417 42.227 73.7262 42.2881C74.1106 42.3406 74.6741 42.3668 75.4167 42.3668C76.1593 42.3668 76.7185 42.3406 77.0942 42.2881C77.4786 42.227 77.6708 42.109 77.6708 41.9343C77.6708 41.7596 77.4786 41.646 77.0942 41.5936C76.7185 41.5324 76.1593 41.5018 75.4167 41.5018C74.6741 41.5018 74.1106 41.5324 73.7262 41.5936C73.3417 41.646 73.1495 41.7596 73.1495 41.9343ZM75.4167 44.4898C74.9711 44.4898 74.5474 44.4767 74.1455 44.4505V44.9485H76.6748V44.4505C76.2642 44.4767 75.8448 44.4898 75.4167 44.4898ZM85.8086 37.9765H92.8854V40.2306H83.0958V36.2467H85.8086V37.9765ZM87.9972 47.7268C87.1672 47.7268 86.4333 47.6875 85.7955 47.6088C85.1577 47.5302 84.616 47.3991 84.1705 47.2157C83.7336 47.0409 83.4016 46.8094 83.1745 46.5211C82.9473 46.2328 82.8337 45.879 82.8337 45.4596C82.8337 45.0402 82.9473 44.6907 83.1745 44.4112C83.4016 44.1229 83.7336 43.8913 84.1705 43.7166C84.616 43.5331 85.1577 43.4021 85.7955 43.3234C86.4333 43.2448 87.1672 43.2055 87.9972 43.2055C88.8184 43.2055 89.5479 43.2448 90.1857 43.3234C90.8323 43.4021 91.3739 43.5331 91.8108 43.7166C92.2563 43.8913 92.5927 44.1229 92.8199 44.4112C93.047 44.6907 93.1606 45.0402 93.1606 45.4596C93.1606 45.879 93.047 46.2328 92.8199 46.5211C92.5927 46.8094 92.2563 47.0409 91.8108 47.2157C91.3739 47.3991 90.8323 47.5302 90.1857 47.6088C89.5479 47.6875 88.8184 47.7268 87.9972 47.7268ZM87.9972 45.8658C88.766 45.8658 89.3645 45.8353 89.7926 45.7741C90.2294 45.7217 90.4478 45.6168 90.4478 45.4596C90.4478 45.3023 90.2294 45.1975 89.7926 45.1451C89.3645 45.0839 88.766 45.0533 87.9972 45.0533C87.2283 45.0533 86.6255 45.0839 86.1887 45.1451C85.7606 45.1975 85.5465 45.3023 85.5465 45.4596C85.5465 45.6168 85.7606 45.7217 86.1887 45.7741C86.6255 45.8353 87.2283 45.8658 87.9972 45.8658ZM82.3226 40.781H93.6586V42.773H82.3226V40.781Z" fill="#1D1D1D"/>
<path d="M116.43 42.9154C116.43 45.6118 114.952 48.238 112.152 50.683C109.354 53.1272 105.277 55.3494 100.2 57.2248C90.0496 60.9744 75.9958 63.3028 60.45 63.3028C44.9041 63.3028 30.8504 60.9744 20.6998 57.2248C15.6227 55.3494 11.5463 53.1272 8.74763 50.683C5.948 48.238 4.4702 45.6118 4.4702 42.9154C4.4702 40.219 5.948 37.5928 8.74763 35.1478C11.5463 32.7036 15.6227 30.4815 20.6998 28.606C30.8504 24.8565 44.9041 22.5281 60.45 22.5281C75.9958 22.5281 90.0496 24.8565 100.2 28.606C105.277 30.4815 109.354 32.7036 112.152 35.1478C114.952 37.5928 116.43 40.219 116.43 42.9154Z" stroke="#1D1D1D" stroke-width="0.923551"/>
<path d="M111.36 19.6373C112.482 22.0895 112.23 25.0924 110.7 28.4802C109.171 31.8668 106.388 35.5828 102.551 39.3996C94.8786 47.0306 83.0657 54.9921 68.9277 61.4565C54.7896 67.921 41.0404 71.6474 30.2498 72.4584C24.8526 72.864 20.2213 72.5382 16.6597 71.4791C13.0969 70.4196 10.6609 68.6458 9.53964 66.1936C8.41839 63.7414 8.67031 60.7385 10.1997 57.3507C11.7285 53.9641 14.5117 50.2481 18.3492 46.4313C26.0214 38.8003 37.8342 30.8388 51.9723 24.3743C66.1103 17.9099 79.8596 14.1835 90.6502 13.3725C96.0474 12.9669 100.679 13.2927 104.24 14.3518C107.803 15.4113 110.239 17.1851 111.36 19.6373Z" stroke="#1D1D1D" stroke-width="0.923551"/>
<path d="M106.13 5.68488C106.13 5.68488 106.975 9.50823 108.643 11.1756C110.31 12.8431 114.134 13.688 114.134 13.688C114.134 13.688 110.31 14.5329 108.643 16.2003C106.975 17.8677 106.13 21.6911 106.13 21.6911C106.13 21.6911 105.286 17.8677 103.618 16.2003C101.951 14.5329 98.1274 13.688 98.1274 13.688C98.1274 13.688 101.951 12.8431 103.618 11.1756C105.286 9.50823 106.13 5.68488 106.13 5.68488Z" fill="#1D1D1D"/>
<path d="M13.5007 61.6796C13.5007 61.6796 14.3456 65.5029 16.0131 67.1703C17.6805 68.8378 21.5038 69.6827 21.5038 69.6827C21.5038 69.6827 17.6805 70.5276 16.0131 72.195C14.3456 73.8624 13.5007 77.6858 13.5007 77.6858C13.5007 77.6858 12.6558 73.8624 10.9884 72.195C9.32099 70.5276 5.49763 69.6827 5.49763 69.6827C5.49763 69.6827 9.32099 68.8378 10.9884 67.1703C12.6558 65.5029 13.5007 61.6796 13.5007 61.6796Z" fill="#1D1D1D"/>
</svg>