  <svg
              width="308"
              height="218"
              viewBox="0 0 308 218"
              fill="none"
              xmlns="http://www.w3.org/2000/svg"
            >
              <path
                d="M82.1064 92.7832H88.6086V98.548H82.0729C82.0506 99.3301 81.95 100.09 81.7713 100.827L89.2119 105.486L85.7932 110.279L78.9894 105.888C77.9839 106.938 76.755 107.832 75.3026 108.569C73.8502 109.284 72.2079 109.854 70.3757 110.279L67.7279 105.218C69.8506 104.838 71.5711 104.089 72.8894 102.972C74.2077 101.833 74.9563 100.358 75.135 98.548H68.6663V92.7832H75.1685V89.4986H82.1064V92.7832ZM97.3229 118.792H90.385V90.437H97.3229V118.792ZM75.0009 112.357V109.039H81.9388V112.357H89.0778V118.088H68.1636V112.357H75.0009ZM118.638 104.782C118.638 107.486 118.392 109.743 117.901 111.552C117.409 113.34 116.739 114.77 115.89 115.843C115.063 116.915 114.102 117.675 113.007 118.122C111.935 118.569 110.806 118.792 109.622 118.792C108.438 118.792 107.298 118.569 106.203 118.122C105.131 117.675 104.17 116.915 103.321 115.843C102.494 114.77 101.835 113.34 101.344 111.552C100.852 109.743 100.606 107.486 100.606 104.782C100.606 102.078 100.852 99.8328 101.344 98.0453C101.835 96.2354 102.494 94.7942 103.321 93.7217C104.17 92.6491 105.131 91.8894 106.203 91.4425C107.298 90.9957 108.438 90.7722 109.622 90.7722C110.806 90.7722 111.935 90.9957 113.007 91.4425C114.102 91.8894 115.063 92.6491 115.89 93.7217C116.739 94.7942 117.409 96.2354 117.901 98.0453C118.392 99.8328 118.638 102.078 118.638 104.782ZM119.845 118.792V90.437H126.347V101.162L128.123 100.559V90.437H134.659V118.792H128.123V106.894L126.347 107.497V118.792H119.845ZM107.075 104.782C107.075 106.503 107.153 107.899 107.309 108.972C107.488 110.044 107.701 110.882 107.946 111.485C108.192 112.089 108.46 112.502 108.751 112.725C109.064 112.927 109.354 113.027 109.622 113.027C109.89 113.027 110.17 112.927 110.46 112.725C110.751 112.502 111.019 112.1 111.264 111.519C111.533 110.916 111.745 110.078 111.901 109.005C112.058 107.91 112.136 106.491 112.136 104.749C112.136 103.028 112.058 101.632 111.901 100.559C111.745 99.4865 111.533 98.6597 111.264 98.0788C111.019 97.4755 110.751 97.0733 110.46 96.8722C110.17 96.6488 109.89 96.537 109.622 96.537C109.354 96.537 109.064 96.6488 108.751 96.8722C108.46 97.0733 108.192 97.4755 107.946 98.0788C107.701 98.6821 107.488 99.52 107.309 100.593C107.153 101.665 107.075 103.062 107.075 104.782ZM156.765 112.357V118.088H135.851V112.357H156.765ZM165.01 118.792H158.072V90.437H165.01V118.792ZM146.074 104.447C146.923 104.447 147.593 104.089 148.085 103.374C148.599 102.637 148.855 101.576 148.855 100.19C148.855 98.7603 148.599 97.6878 148.085 96.9728C147.593 96.2577 146.923 95.9002 146.074 95.9002C144.219 95.9002 143.292 97.3303 143.292 100.19C143.292 101.598 143.526 102.659 143.996 103.374C144.487 104.089 145.18 104.447 146.074 104.447ZM136.354 100.19C136.354 98.6486 136.588 97.2632 137.058 96.0343C137.527 94.783 138.186 93.7217 139.035 92.8502C139.884 91.9788 140.901 91.3085 142.085 90.8392C143.292 90.37 144.621 90.1354 146.074 90.1354C147.526 90.1354 148.844 90.37 150.029 90.8392C151.235 91.3085 152.263 91.9788 153.112 92.8502C153.961 93.7217 154.62 94.783 155.09 96.0343C155.559 97.2632 155.793 98.6486 155.793 100.19C155.793 101.71 155.559 103.084 155.09 104.313C154.62 105.542 153.961 106.592 153.112 107.463C152.263 108.335 151.235 109.005 150.029 109.474C148.844 109.944 147.526 110.178 146.074 110.178C144.621 110.178 143.292 109.944 142.085 109.474C140.901 109.005 139.884 108.335 139.035 107.463C138.186 106.592 137.527 105.542 137.058 104.313C136.588 103.084 136.354 101.71 136.354 100.19ZM178.257 113.027H182.581V109.977C181.776 109.463 181.151 108.826 180.704 108.067C180.257 107.307 180.034 106.391 180.034 105.318C180.034 104.022 180.358 102.961 181.006 102.134C181.676 101.285 182.581 100.615 183.72 100.123C184.86 99.6317 186.201 99.2854 187.742 99.0843C189.307 98.8832 190.982 98.7826 192.77 98.7826C194.557 98.7826 196.222 98.8832 197.764 99.0843C199.306 99.2854 200.646 99.6317 201.786 100.123C202.925 100.615 203.819 101.285 204.467 102.134C205.137 102.961 205.473 104.022 205.473 105.318C205.473 106.391 205.249 107.307 204.802 108.067C204.355 108.826 203.73 109.463 202.925 109.977V113.027H207.249V118.792H178.257V113.027ZM179.229 91.8783H189.284V89.2305H196.222V91.8783H206.277V97.6431H179.229V91.8783ZM186.972 105.318C186.972 105.765 187.463 106.067 188.446 106.223C189.429 106.357 190.871 106.424 192.77 106.424C194.669 106.424 196.099 106.357 197.06 106.223C198.043 106.067 198.535 105.765 198.535 105.318C198.535 104.871 198.043 104.581 197.06 104.447C196.099 104.291 194.669 104.212 192.77 104.212C190.871 104.212 189.429 104.291 188.446 104.447C187.463 104.581 186.972 104.871 186.972 105.318ZM192.77 111.854C191.63 111.854 190.547 111.821 189.519 111.754V113.027H195.987V111.754C194.937 111.821 193.865 111.854 192.77 111.854ZM219.347 95.1964H237.446V100.961H212.409V90.7722H219.347V95.1964ZM224.944 120.133C222.822 120.133 220.945 120.032 219.314 119.831C217.682 119.63 216.297 119.295 215.158 118.825C214.04 118.379 213.191 117.786 212.61 117.049C212.029 116.312 211.739 115.407 211.739 114.334C211.739 113.262 212.029 112.368 212.61 111.653C213.191 110.916 214.04 110.323 215.158 109.877C216.297 109.407 217.682 109.072 219.314 108.871C220.945 108.67 222.822 108.569 224.944 108.569C227.045 108.569 228.91 108.67 230.542 108.871C232.195 109.072 233.58 109.407 234.698 109.877C235.837 110.323 236.697 110.916 237.278 111.653C237.859 112.368 238.15 113.262 238.15 114.334C238.15 115.407 237.859 116.312 237.278 117.049C236.697 117.786 235.837 118.379 234.698 118.825C233.58 119.295 232.195 119.63 230.542 119.831C228.91 120.032 227.045 120.133 224.944 120.133ZM224.944 115.373C226.911 115.373 228.441 115.295 229.536 115.139C230.653 115.005 231.212 114.736 231.212 114.334C231.212 113.932 230.653 113.664 229.536 113.53C228.441 113.373 226.911 113.295 224.944 113.295C222.978 113.295 221.436 113.373 220.319 113.53C219.224 113.664 218.677 113.932 218.677 114.334C218.677 114.736 219.224 115.005 220.319 115.139C221.436 115.295 222.978 115.373 224.944 115.373ZM210.432 102.369H239.423V107.463H210.432V102.369Z"
                fill="#1D1D1D"
              />
              <path
                d="M297.797 108.518C297.797 115.485 293.977 122.247 286.795 128.52C279.615 134.791 269.168 140.483 256.171 145.284C230.186 154.883 194.222 160.84 154.447 160.84C114.673 160.84 78.7086 154.883 52.7237 145.284C39.7273 140.483 29.2798 134.791 22.0997 128.52C14.9175 122.247 11.0983 115.485 11.0983 108.518C11.0983 101.55 14.9175 94.7884 22.0997 88.5159C29.2798 82.2453 39.7273 76.5526 52.7237 71.7519C78.7086 62.1532 114.673 56.1963 154.447 56.1963C194.222 56.1963 230.186 62.1532 256.171 71.7519C269.168 76.5526 279.615 82.2453 286.795 88.5159C293.977 94.7884 297.797 101.55 297.797 108.518Z"
                stroke="#1D1D1D"
                stroke-width="2"
              />
              <path
                d="M284.815 48.9088C287.712 55.2453 287.051 62.9831 283.127 71.6742C279.205 80.3627 272.071 89.8841 262.248 99.6545C242.607 119.189 212.377 139.562 176.204 156.101C140.032 172.641 104.847 182.178 77.224 184.254C63.4082 185.293 51.5397 184.46 42.4023 181.743C33.2622 179.025 26.9769 174.463 24.0797 168.127C21.1824 161.79 21.8439 154.053 25.7674 145.362C29.6897 136.673 36.8239 127.152 46.6471 117.381C66.2874 97.8465 96.5181 77.4738 132.69 60.9344C168.863 44.3951 204.047 34.8573 231.671 32.7814C245.487 31.7431 257.355 32.5758 266.492 35.2929C275.633 38.0108 281.918 42.5723 284.815 48.9088Z"
                stroke="#1D1D1D"
                stroke-width="2"
              />
              <path
                d="M271.275 13.3007C271.275 13.3007 273.436 23.0789 277.701 27.3433C281.965 31.6077 291.743 33.7686 291.743 33.7686C291.743 33.7686 281.965 35.9294 277.701 40.1939C273.436 44.4583 271.275 54.2365 271.275 54.2365C271.275 54.2365 269.114 44.4583 264.85 40.1939C260.586 35.9294 250.807 33.7686 250.807 33.7686C250.807 33.7686 260.586 31.6077 264.85 27.3433C269.114 23.0789 271.275 13.3007 271.275 13.3007Z"
                fill="#1D1D1D"
              />
              <path
                d="M34.3749 156.507C34.3749 156.507 36.5358 166.286 40.8002 170.55C45.0646 174.814 54.8429 176.975 54.8429 176.975C54.8429 176.975 45.0646 179.136 40.8002 183.401C36.5358 187.665 34.3749 197.443 34.3749 197.443C34.3749 197.443 32.2141 187.665 27.9497 183.401C23.6853 179.136 13.907 176.975 13.907 176.975C13.907 176.975 23.6853 174.814 27.9497 170.55C32.2141 166.286 34.3749 156.507 34.3749 156.507Z"
                fill="#1D1D1D"
              />
            </svg>